# xmcd
# Copyright (C) 1995-1998 Ti Kan
#
# Track frame offsets:
#       150
#       17006
#       31805
#       52758
#
# Disc length: 1035 seconds
#
# Revision: 0
# Processed by: cddbd v1.5.2PL0 Copyright (c) Steve Scherf et al.
# Submitted via: CD-Import v1.0
#
DISCID=20040904
DTITLE=Zion's Power - Jah Is A Radio
DYEAR=07
DGENRE=
TTITLE0=Bittercove
TTITLE1=No Stars
TTITLE2=Always
TTITLE3=Bitter Cove
EXTD=
EXTT0=
EXTT1=
EXTT2=
EXTT3=
PLAYORDER=
